<svg xmlns="http://www.w3.org/2000/svg" width="23" height="15" viewBox="0 0 23 15">
    <g fill="none" fill-rule="evenodd">
        <g fill="#063642" fill-rule="nonzero">
            <g>
                <g>
                    <g>
                        <path d="M29.61 21c.746-.036 1.456-.338 2.008-.853l4.954-5.086c.57-.586.57-1.535 0-2.121l-4.954-5.086c-.552-.515-1.262-.817-2.007-.854H16.46C15.654 7 15 7.672 15 8.5v11c0 .828.654 1.5 1.461 1.5h13.15zm-9.917-8.768c-.253-.251-.355-.623-.266-.973.09-.35.355-.622.696-.714.34-.091.703.013.947.273l1.55 1.591c.046.047.108.073.173.073.064 0 .126-.026.172-.073l1.55-1.591c.38-.39.997-.391 1.377 0 .38.39.381 1.023 0 1.414l-1.548 1.591c-.095.098-.095.256 0 .354l1.55 1.591c.381.39.38 1.024 0 1.414-.38.391-.997.39-1.378 0l-1.551-1.591c-.046-.047-.108-.073-.172-.073-.065 0-.127.026-.172.073l-1.55 1.591c-.245.26-.607.364-.948.273-.34-.092-.607-.365-.696-.714-.089-.35.013-.722.266-.973l1.55-1.591c.046-.047.072-.11.072-.177 0-.066-.026-.13-.072-.177l-1.55-1.591z" transform="translate(-175 -604) translate(0 271) translate(84.65 141.66) translate(76 185) rotate(-180 26 14)"/>
                    </g>
                </g>
            </g>
        </g>
    </g>
</svg>
